<svg class="cv-icon" width="28" viewBox="0 0 300 300" version="1.1" xmlns="http://www.w3.org/2000/svg">
<g id="#d7a482ff">
<path fill="#fb9061" opacity="1.00" d=" M 132.47 0.00 L 167.53 0.00 C 197.07 4.20 225.69 16.00 248.24 35.76 C 277.15 59.89 294.91 95.55 300.00 132.59 L 300.00 167.54 C 295.80 197.07 284.00 225.69 264.24 248.24 C 240.11 277.15 204.45 294.91 167.41 300.00 L 132.46 300.00 C 102.93 295.80 74.31 284.00 51.76 264.24 C 22.85 240.11 5.09 204.45 0.00 167.41 L 0.00 132.59 C 5.09 95.55 22.85 59.89 51.76 35.76 C 74.31 16.00 102.93 4.20 132.47 0.00 M 84.32 98.54 C 71.77 101.15 60.78 109.44 54.68 120.69 C 44.94 138.30 44.55 160.50 52.04 178.98 C 58.87 196.46 77.93 206.17 96.00 205.94 C 107.22 206.08 119.11 204.20 128.32 197.34 C 138.69 189.80 143.62 177.15 145.96 164.96 C 139.86 165.00 133.76 165.06 127.67 165.15 C 126.37 171.52 124.28 177.88 119.80 182.81 C 111.86 191.36 98.90 192.53 88.17 189.80 C 74.65 186.01 67.45 171.99 66.25 158.85 C 65.57 145.89 66.59 131.03 76.15 121.15 C 85.68 111.07 101.73 109.41 114.03 114.97 C 121.27 118.15 124.43 126.08 127.18 132.98 C 133.25 132.98 139.31 132.96 145.39 132.92 C 143.72 124.93 141.29 116.60 135.36 110.64 C 122.50 97.04 101.76 94.78 84.32 98.54 M 155.02 98.95 C 168.21 134.03 181.88 168.92 195.19 203.96 C 201.65 203.93 208.11 203.91 214.58 203.89 C 227.32 168.77 240.89 133.96 253.97 98.97 C 247.70 99.00 241.43 99.02 235.18 99.08 C 225.52 128.42 215.39 157.60 205.58 186.89 C 195.05 157.72 185.27 128.28 174.78 99.10 C 168.19 99.03 161.60 98.98 155.02 98.95 Z" />
</g>
</svg>